<svg xmlns="http://www.w3.org/2000/svg" xmlns:xlink="http://www.w3.org/1999/xlink" version="1.1" id="Layer_1" x="0px" y="0px" width="41" height="36" viewBox="0 0 41 36" style="enable-background:new 0 0 41 36;" xml:space="preserve">
<style type="text/css">
	.st0{opacity:0.52;fill:#FFFFFF;stroke:#00A9FA;stroke-width:2;enable-background:new    ;}
	.st1{fill:#00A9FA;}
</style>
<path class="st0" d="M9.1,3L9.1,3L9.1,3c0.7-1.2,2-2,3.5-2h15c1.5,0,2.8,0.7,3.4,1.9v0l0,0l7.6,12.7c0,0,0,0,0,0  c0.7,1.2,0.7,2.7,0,3.8c0,0,0,0,0,0L31,32.2l0,0l0,0c-0.7,1.2-2,1.9-3.4,1.9h-15c-1.4,0-2.8-0.7-3.5-2c0,0,0,0,0,0L1.5,19.5  c-0.7-1.2-0.7-2.7,0-3.8L9.1,3z"/>
<path class="st1" d="M16.7,13.5h-3v4.1h3V30h5V17.6h3.6l0.4-4.1h-4v-1.8c0-0.9,0.2-1.3,1.1-1.3h2.9V5.3H22c-3.6,0-5.2,1.7-5.2,4.7  V13.5z"/>
</svg>