<svg xmlns="http://www.w3.org/2000/svg" xmlns:xlink="http://www.w3.org/1999/xlink" version="1.1" id="Layer_1" x="0px" y="0px" width="41" height="36" viewBox="0 0 41 36" style="enable-background:new 0 0 41 36;" xml:space="preserve">
<style type="text/css">
	.st0{opacity:0.52;fill:#FFFFFF;stroke:#00A9FA;stroke-width:2;enable-background:new    ;}
	.st1{fill:#00A9FA;}
</style>
<path class="st0" d="M9.1,3L9.1,3L9.1,3c0.7-1.2,2-2,3.5-2h15C29,1,30.3,1.7,31,2.9v0l0,0l7.6,12.7c0,0,0,0,0,0  c0.7,1.2,0.7,2.7,0,3.8c0,0,0,0,0,0L31,32.2l0,0l0,0c-0.7,1.2-2,1.9-3.4,1.9h-15c-1.4,0-2.8-0.7-3.5-2c0,0,0,0,0,0L1.5,19.5  c-0.7-1.2-0.7-2.7,0-3.8L9.1,3z"/>
<path class="st1" d="M19.8,9.3c2.7,0,3.1,0,4.2,0.1c2.8,0.1,4.1,1.5,4.2,4.2c0.1,1.1,0.1,1.4,0.1,4.1c0,2.7,0,3.1-0.1,4.1  c-0.1,2.7-1.5,4.1-4.2,4.2C22.9,26,22.6,26,19.8,26c-2.7,0-3.1,0-4.1-0.1c-2.8-0.1-4.1-1.5-4.2-4.2c-0.1-1.1-0.1-1.4-0.1-4.1  c0-2.7,0-3.1,0.1-4.1c0.1-2.7,1.5-4.1,4.2-4.2C16.7,9.3,17,9.3,19.8,9.3z M19.8,7.4c-2.8,0-3.2,0-4.2,0.1c-3.8,0.2-5.8,2.2-6,6  c-0.1,1-0.1,1.4-0.1,4.2c0,2.8,0,3.2,0.1,4.2c0.2,3.8,2.2,5.8,6,6c1,0.1,1.4,0.1,4.2,0.1s3.2,0,4.2-0.1c3.8-0.2,5.8-2.2,6-6  c0.1-1,0.1-1.4,0.1-4.2c0-2.8,0-3.2-0.1-4.2c-0.2-3.8-2.2-5.8-6-6C22.9,7.4,22.6,7.4,19.8,7.4z M19.8,12.3c-2.9,0-5.3,2.4-5.3,5.3  c0,2.9,2.4,5.3,5.3,5.3s5.3-2.4,5.3-5.3C25.1,14.7,22.7,12.3,19.8,12.3z M19.8,21.1c-1.9,0-3.4-1.5-3.4-3.4c0-1.9,1.5-3.4,3.4-3.4  c1.9,0,3.4,1.5,3.4,3.4C23.2,19.5,21.7,21.1,19.8,21.1z M25.2,11c-0.7,0-1.2,0.5-1.2,1.2c0,0.7,0.5,1.2,1.2,1.2  c0.7,0,1.2-0.5,1.2-1.2C26.4,11.5,25.9,11,25.2,11z"/>
</svg>