<svg xmlns="http://www.w3.org/2000/svg" xmlns:xlink="http://www.w3.org/1999/xlink" version="1.1" id="Layer_1" x="0px" y="0px" width="41" height="36" viewBox="0 0 41 36" style="enable-background:new 0 0 41 36;" xml:space="preserve">
<style type="text/css">
	.st0{opacity:0.52;fill:#FFFFFF;stroke:#00A9FA;stroke-width:2;enable-background:new    ;}
	.st1{fill:#00A9FA;}
</style>
<path class="st0" d="M9.1,3L9.1,3L9.1,3c0.7-1.2,2-2,3.5-2h15C29,1,30.3,1.7,31,2.9l0,0l0,0l7.6,12.7c0,0,0,0,0,0  c0.7,1.2,0.7,2.7,0,3.8c0,0,0,0,0,0L31,32.2l0,0l0,0c-0.7,1.2-2,1.9-3.4,1.9h-15c-1.4,0-2.8-0.7-3.5-2c0,0,0,0,0,0L1.5,19.5  c-0.7-1.2-0.7-2.7,0-3.8L9.1,3z"/>
<path class="st1" d="M14.8,10.8c0,1-0.8,1.8-1.9,1.8c-1,0-1.9-0.8-1.9-1.8c0-1,0.8-1.8,1.9-1.8C14,9,14.8,9.8,14.8,10.8z M14.8,14.1  h-3.7v11.7h3.7V14.1z M20.8,14.1h-3.7v11.7h3.7v-6.2c0-3.4,4.5-3.7,4.5,0v6.2H29v-7.4c0-5.8-6.6-5.6-8.2-2.7V14.1z"/>
</svg>