<svg xmlns="http://www.w3.org/2000/svg" xmlns:xlink="http://www.w3.org/1999/xlink" version="1.1" id="Layer_1" x="0px" y="0px" width="41" height="36" viewBox="0 0 41 36" style="enable-background:new 0 0 41 36;" xml:space="preserve">
<style type="text/css">
	.st0{opacity:0.52;fill:#FFFFFF;stroke:#00A9FA;stroke-width:2;enable-background:new    ;}
	.st1{fill:#00A9FA;}
</style>
<path class="st0" d="M9.1,3L9.1,3L9.1,3c0.7-1.2,2-2,3.5-2h15C29,1,30.3,1.7,31,2.9l0,0l0,0l7.6,12.7c0,0,0,0,0,0  c0.7,1.2,0.7,2.7,0,3.8c0,0,0,0,0,0L31,32.2l0,0l0,0c-0.7,1.2-2,1.9-3.4,1.9h-15c-1.4,0-2.8-0.7-3.5-2c0,0,0,0,0,0L1.5,19.5  c-0.7-1.2-0.7-2.7,0-3.8L9.1,3z"/>
<path class="st1" d="M15.9,25.8c7.8,0,12-6.5,12-12.1c0-0.2,0-0.4,0-0.6c0.8-0.6,1.5-1.3,2.1-2.2c-0.8,0.3-1.6,0.6-2.4,0.7  c0.9-0.5,1.5-1.4,1.9-2.4c-0.8,0.5-1.7,0.8-2.7,1C26,9.5,24.9,9,23.7,9c-2.3,0-4.2,1.9-4.2,4.3c0,0.3,0,0.7,0.1,1  c-3.5-0.2-6.6-1.9-8.7-4.4c-0.4,0.6-0.6,1.4-0.6,2.1c0,1.5,0.7,2.8,1.9,3.5c-0.7,0-1.3-0.2-1.9-0.5c0,0,0,0,0,0.1  c0,2.1,1.5,3.8,3.4,4.2c-0.4,0.1-0.7,0.1-1.1,0.1c-0.3,0-0.5,0-0.8-0.1c0.5,1.7,2.1,2.9,3.9,3c-1.4,1.1-3.3,1.8-5.2,1.8  c-0.3,0-0.7,0-1-0.1C11.4,25.1,13.6,25.8,15.9,25.8z"/>
</svg>