<svg xmlns:xlink="http://www.w3.org/1999/xlink" class="hsg-page-header__bg--desktop" viewBox="0 0 984 686" xmlns="http://www.w3.org/2000/svg" width="984"  height="686" >
          <path style="fill: #b9853f" class="hsg-page-header__bg-blob--background" d="M829.645582,-3.55271368e-14 C818.959194,11.9356039 808.954818,24.8206121 799.721248,38.7211139 C723.226254,157.53566 739.861725,301.270975 797.809751,426.687474 C804.958442,442.184984 814.61534,462.120894 818.944183,473.423703 C844.673456,540.503061 856.345675,600.855141 881.916718,667.40505 C761.006678,679.138421 646.665221,685.004119 538.890625,685.004119 L0,685.004119 L0,685.004119 L0,0.00411925189 Z" fill="#F5F8FA"></path>
          <path class="hsg-page-header__bg-blob--small" d="M995.765853,690.670383 C1004.18224,698.198908 1010.89512,706.716917 1015.98268,715.998337 L579.456263,715.992134 C583.995701,573.812815 592.889746,520.954152 721.334176,485.511351 C860.208297,447.190586 918.80802,621.831016 995.765853,690.670383 Z" fill="#b9853f"></path>
        </svg>